<?xml version="1.0" standalone="no"?>
<!DOCTYPE svg PUBLIC "-//W3C//DTD SVG 20010904//EN"
 "http://www.w3.org/TR/2001/REC-SVG-20010904/DTD/svg10.dtd">
<svg version="1.0" xmlns="http://www.w3.org/2000/svg"
 width="1060.000000pt" height="1060.000000pt" viewBox="0 0 1060.000000 1060.000000"
 preserveAspectRatio="xMidYMid meet">
<metadata>
Created by potrace 1.11, written by Peter Selinger 2001-2013
</metadata>
<g transform="translate(0.000000,1060.000000) scale(0.100000,-0.100000)"
fill="#000000" stroke="none">
<path d="M4980 10589 c-600 -33 -1253 -191 -1820 -441 -953 -420 -1768 -1121
-2330 -2003 -650 -1022 -932 -2244 -794 -3445 194 -1688 1177 -3174 2657
-4014 992 -563 2197 -795 3312 -637 786 112 1479 363 2127 772 876 553 1593
1383 2007 2320 618 1403 614 2941 -13 4347 -410 919 -1128 1744 -1994 2291
-942 594 -2018 871 -3152 810z m-3049 -2786 c23 -38 79 -124 124 -193 98 -149
561 -862 725 -1115 64 -99 146 -225 182 -280 35 -55 174 -269 308 -475 134
-206 286 -440 338 -520 53 -80 96 -152 96 -161 1 -8 -116 -123 -259 -255 -142
-131 -311 -287 -375 -346 -86 -79 -118 -103 -126 -95 -6 7 -114 190 -239 407
-125 217 -249 431 -275 475 -26 44 -165 285 -310 535 -144 250 -285 492 -312
537 l-49 82 30 353 c17 194 36 409 41 478 6 69 19 233 30 364 11 132 20 247
20 258 0 10 2 18 4 18 2 0 23 -30 47 -67z m6759 38 c0 -11 11 -149 25 -308 14
-158 40 -479 59 -711 l34 -424 -105 -181 c-121 -209 -206 -356 -508 -877 -119
-206 -239 -413 -266 -460 -27 -47 -107 -184 -177 -304 -70 -121 -131 -219
-135 -218 -9 1 -737 666 -751 686 -10 14 -6 19 379 611 125 193 286 440 357
550 118 182 264 407 470 722 155 240 525 810 563 870 42 66 55 76 55 44z
m-3190 -1918 c579 -555 1826 -1757 1948 -1877 l142 -140 0 -599 c0 -348 -4
-597 -9 -595 -5 2 -213 203 -462 448 -1093 1073 -1792 1755 -1803 1758 -6 1
-524 -503 -1151 -1121 l-1140 -1124 -7 66 c-4 36 -14 302 -22 591 l-15 525
102 100 c57 55 525 507 1042 1004 517 498 994 958 1060 1023 66 65 122 118
125 118 3 0 89 -80 190 -177z"/>
</g>
</svg>
